<svg width="100" height="18" viewBox="0 0 18 18" fill="none" xmlns="http://www.w3.org/2000/svg">
<path fill-rule="evenodd" clip-rule="evenodd" d="M6.035 11.255H5.245L0.255005 16.255L1.745 17.745L6.745 12.755V11.965L7.01501 11.685C8.15501 12.665 9.635 13.255 11.245 13.255C14.835 13.255 17.745 10.345 17.745 6.755C17.745 3.165 14.835 0.255005 11.245 0.255005C7.655 0.255005 4.745 3.165 4.745 6.755C4.745 8.365 5.335 9.845 6.315 10.985L6.035 11.255ZM15.745 6.755C15.745 9.245 13.735 11.255 11.245 11.255C8.755 11.255 6.745 9.245 6.745 6.755C6.745 4.26501 8.755 2.255 11.245 2.255C13.735 2.255 15.745 4.26501 15.745 6.755Z" fill="black" fill-opacity="0.54"/>
</svg>
